PathFileType	4	(X/Y/Z)	C:\Users\wzy\Desktop\s001_20220513_walk_1_markers.trc
DataRate	CameraRate	NumFrames	NumMarkers	Units	OrigDataRate	OrigDataStartFrame	OrigNumFrames
250.000000	250.000000	4	99	mm	250.000000	404	1078
Frame#	Time	QTMMod_head_top			QTMMod_head_l_ant			QTMMod_head_r_ant			QTMMod_head_r_post			QTMMod_head_l_post			QTMMod_trunk_l_acro			QTMMod_trunk_r_acro			QTMMod_trunk_manu			QTMMod_trunk_xyph			QTMMod_trunk_abdl			QTMMod_trunk_c7			QTMMod_trunk_t8			QTMMod_trunk_t12			QTMMod_l_sho_ant			QTMMod_l_sho_post			QTMMod_l_bicep			QTMMod_l_tricep			QTMMod_l_elb_lat			QTMMod_l_elb_med			QTMMod_l_farm_ant			QTMMod_l_farm_post			QTMMod_l_wri_lat			QTMMod_l_wri_med			QTMMod_l_hand			QTMMod_l_thmb			QTMMod_r_sho_ant			QTMMod_r_sho_post			QTMMod_r_bicep			QTMMod_r_tricep			QTMMod_r_elb_lat			QTMMod_r_elb_med			QTMMod_r_farm_ant			QTMMod_r_farm_post			QTMMod_r_wri_lat			QTMMod_r_wri_med			QTMMod_r_hand			QTMMod_r_thmb			QTMMod_pelvis_l_asis			QTMMod_pelvis_r_asis			QTMMod_pelvis_r			QTMMod_pelvis_r_ilcr			QTMMod_pelvis_r_psis			QTMMod_pelvis_sac			QTMMod_pelvis_l_psis			QTMMod_pelvis_l_ilcr			QTMMod_pelvis_l			QTMMod_l_hip_grtr			QTMMod_l_thigh_antprox			QTMMod_l_thigh_postprox			QTMMod_l_thigh_postdist			QTMMod_l_thigh_antdist			QTMMod_l_thigh_ant			QTMMod_l_thigh_med			QTMMod_l_thigh_pos			QTMMod_l_knee_lat			QTMMod_l_knee_med			QTMMod_l_shank_antprox			QTMMod_l_shank_postprox			QTMMod_l_shank_postdist			QTMMod_l_shank_antdist			QTMMod_l_shank_med			QTMMod_l_ank_lat			QTMMod_l_ank_med			QTMMod_l_foot_heel			QTMMod_l_foot_lat			QTMMod_l_foot_m5			QTMMod_l_foot_m2			QTMMod_l_foot_toe			QTMMod_l_foot_m1			QTMMod_l_foot_med			QTMMod_l_foot_navi			QTMMod_r_hip_grtr			QTMMod_r_thigh_antprox			QTMMod_r_thigh_postprox			QTMMod_r_thigh_postdist			QTMMod_r_thigh_antdist			QTMMod_r_thigh_ant			QTMMod_r_thigh_med			QTMMod_r_thigh_pos			QTMMod_r_knee_lat			QTMMod_r_knee_med			QTMMod_r_shank_antprox			QTMMod_r_shank_postprox			QTMMod_r_shank_postdist			QTMMod_r_shank_antdist			QTMMod_r_shank_med			QTMMod_r_ank_lat			QTMMod_r_ank_med			QTMMod_r_foot_heel			QTMMod_r_foot_lat			QTMMod_r_foot_m5			QTMMod_r_foot_m2			QTMMod_r_foot_toe			QTMMod_r_foot_m1			QTMMod_r_foot_med			QTMMod_r_foot_navi			QTMMod_head_l			QTMMod_head_r			QTMMod_head_front			
		X1	Y1	Z1	X2	Y2	Z2	X3	Y3	Z3	X4	Y4	Z4	X5	Y5	Z5	X6	Y6	Z6	X7	Y7	Z7	X8	Y8	Z8	X9	Y9	Z9	X10	Y10	Z10	X11	Y11	Z11	X12	Y12	Z12	X13	Y13	Z13	X14	Y14	Z14	X15	Y15	Z15	X16	Y16	Z16	X17	Y17	Z17	X18	Y18	Z18	X19	Y19	Z19	X20	Y20	Z20	X21	Y21	Z21	X22	Y22	Z22	X23	Y23	Z23	X24	Y24	Z24	X25	Y25	Z25	X26	Y26	Z26	X27	Y27	Z27	X28	Y28	Z28	X29	Y29	Z29	X30	Y30	Z30	X31	Y31	Z31	X32	Y32	Z32	X33	Y33	Z33	X34	Y34	Z34	X35	Y35	Z35	X36	Y36	Z36	X37	Y37	Z37	X38	Y38	Z38	X39	Y39	Z39	X40	Y40	Z40	X41	Y41	Z41	X42	Y42	Z42	X43	Y43	Z43	X44	Y44	Z44	X45	Y45	Z45	X46	Y46	Z46	X47	Y47	Z47	X48	Y48	Z48	X49	Y49	Z49	X50	Y50	Z50	X51	Y51	Z51	X52	Y52	Z52	X53	Y53	Z53	X54	Y54	Z54	X55	Y55	Z55	X56	Y56	Z56	X57	Y57	Z57	X58	Y58	Z58	X59	Y59	Z59	X60	Y60	Z60	X61	Y61	Z61	X62	Y62	Z62	X63	Y63	Z63	X64	Y64	Z64	X65	Y65	Z65	X66	Y66	Z66	X67	Y67	Z67	X68	Y68	Z68	X69	Y69	Z69	X70	Y70	Z70	X71	Y71	Z71	X72	Y72	Z72	X73	Y73	Z73	X74	Y74	Z74	X75	Y75	Z75	X76	Y76	Z76	X77	Y77	Z77	X78	Y78	Z78	X79	Y79	Z79	X80	Y80	Z80	X81	Y81	Z81	X82	Y82	Z82	X83	Y83	Z83	X84	Y84	Z84	X85	Y85	Z85	X86	Y86	Z86	X87	Y87	Z87	X88	Y88	Z88	X89	Y89	Z89	X90	Y90	Z90	X91	Y91	Z91	X92	Y92	Z92	X93	Y93	Z93	X94	Y94	Z94	X95	Y95	Z95	X96	Y96	Z96	X97	Y97	Z97	X98	Y98	Z98	X99	Y99	Z99	

405	1.616	97.57452392578114	1653.47900390625	-264.323486328125	144.4002380371093	1544.11865234375	-342.2703247070312	158.4108581542968	1568.324340820312	-178.6673278808594	59.23657608032216	1557.828491210938	-174.2176513671875	28.84362602233875	1531.2978515625	-322.7466430664062	91.03192138671864	1376.57470703125	-401.0475158691406	89.35189056396476	1361.10205078125	-86.53000640869141	128.4324493408202	1323.920288085938	-247.0286560058594	175.8710632324218	1107.848754882812	-243.7270050048828	205.0256042480468	980.7108764648438	-239.6819915771484	17.84336471557607	1411.450561523438	-241.7318420410156	-58.81468582153329	1206.851196289062	-246.5343170166016	-50.60626983642587	1110.828491210938	-237.2849273681641	125.3784866333007	1314.977294921875	-387.4434204101562	16.89285659790028	1351.593139648438	-411.2911071777344	103.0499038696288	1166.39013671875	-441.6806335449219	-13.21536636352549	1190.516357421875	-443.6703491210938	65.06257629394521	1058.5693359375	-508.5444641113281	12.71187210082999	1039.920166015625	-427.936279296875	59.96717453002921	942.9550170898438	-447.6752014160156	57.59970474243155	957.812744140625	-528.651611328125	104.4268646240234	816.2052612304688	-484.0302124023438	67.3702850341796	823.5446166992188	-542.3693237304688	97.72306823730462	766.573486328125	-539.4363403320312	111.6764907836913	767.3859252929688	-483.4856262207031	132.6839294433593	1306.670288085938	-108.1409530639649	11.10151100158683	1328.010375976562	-79.32625579833984	140.1442108154296	1164.9306640625	-51.95575332641602	34.21500015258782	1153.786865234375	-34.26150512695312	134.6721801757812	1042.328735351562	20.36354637145995	81.98088073730463	1019.441711425781	-59.69365310668946	149.5548858642578	959.6585693359375	-47.31451797485352	129.5869140624999	967.312744140625	34.92290496826171	220.5043640136718	823.1397705078125	-23.41697120666505	173.8500671386718	805.1478881835938	29.58538627624511	218.7520446777343	756.2116088867188	23.91610527038573	243.1937713623046	772.1323852539062	-21.93003082275392	151.5633850097655	978.039306640625	-353.6791381835938	149.3326873779296	960.402099609375	-120.7189254760742	51.304214477539	978.0518798828125	-64.96259307861328	49.59369277954094	999.3438110351562	-64.57086944580078	-54.37612533569344	996.8042602539062	-178.2621765136719	-58.57316589355477	997.0591430664062	-231.4055938720703	-55.71456146240242	1003.819580078125	-280.3926696777344	62.03869247436514	1027.622802734375	-406.2303466796875	76.64363861083976	981.4976806640625	-408.0701293945312	66.06594848632804	939.9542236328125	-428.4391784667969	203.9105529785156	656.151123046875	-388.5263061523438	137.9278717041015	629.933837890625	-387.360107421875	172.7458038330078	541.47509765625	-361.0592651367188	238.0173645019531	571.0695190429688	-354.7194213867188	267.6265563964843	573.5444946289062	-288.0492858886719	209.7657012939453	631.5037231445312	-230.5294952392578	93.23618316650386	572.0736083984375	-312.1537780761719	236.2669677734374	499.4106750488281	-330.78076171875	220.1099090576172	501.3365783691406	-226.8433227539062	236.956558227539	353.0677185058594	-340.9498901367188	166.1387786865234	359.688232421875	-361.3087158203125	158.3700408935546	287.3783264160156	-350.2555236816406	229.6497039794921	279.3221740722656	-337.0791015625	214.6136474609375	315.7470092773438	-226.8336029052734	196.2249145507812	87.26381683349611	-309.4815979003906	180.5560913085938	86.35899353027345	-226.7095489501953	129.0436553955078	63.31590270996094	-275.1305236816406	248.1343841552734	48.75814819335939	-307.5867004394531	317.6924438476562	39.45912933349612	-308.2489318847656	347.3613586425781	56.64855194091799	-242.705078125	391.4009094238281	52.1414260864258	-256.8684387207031	308.0661926269531	47.37565994262697	-210.6921691894532	248.6325073242188	46.0973587036133	-208.3013916015625	264.7803039550781	97.14453125000001	-259.4803771972656	86.62222290039057	933.1901245117188	-55.27742767333985	148.1980895996093	635.9654541015625	-62.66241073608399	75.76419830322261	636.5441284179688	-50.14107131958009	77.84752655029294	539.0012817382812	-67.48195648193359	148.222427368164	537.9229125976562	-75.83570098876955	175.1592102050781	493.7520446777344	-137.43603515625	168.9029388427734	597.5177001953125	-198.4551544189453	14.57028198242183	595.3923950195312	-148.1775054931641	105.7001876831054	452.2073364257812	-88.12057495117188	128.6475067138672	436.9339599609375	-186.2849578857422	2.609577417373631	366.2066955566406	-72.18287658691406	-30.51991653442386	431.1081848144531	-78.46434020996094	-96.877799987793	395.7119445800781	-82.45055389404297	-65.3679885864258	330.7854919433594	-78.07837677001953	-13.04083728790286	327.3166198730469	-176.9594421386719	-267.0795593261719	240.0721282958984	-116.171257019043	-242.8612670898438	236.4677124023437	-200.9142608642578	-300.3868408203125	292.8704528808594	-158.0315399169922	-285.7825927734375	164.9987030029297	-120.6820602416992	-287.7328796386719	105.1465377807617	-116.265007019043	-247.432373046875	86.70960998535155	-185.7814483642578	-237.720947265625	35.68650817871092	-188.403579711914	-275.0941162109375	90.35733032226561	-227.6112365722656	-270.9030151367188	166.4225158691406	-210.3199768066406	-222.9836883544922	171.6290588378906	-159.4770965576172	86.62193298339832	1537.708251953125	-332.5084838867188	108.8237152099608	1563.076416015625	-176.4424896240234	151.405548095703	1556.221557617188	-260.4688415527344	
406	1.62	102.129051208496	1654.391479492188	-264.4579772949219	149.0606079101561	1545.026000976562	-342.3069458007812	162.865982055664	1569.170288085938	-178.7742462158203	63.78123092651357	1558.691650390625	-174.3342437744141	33.55782318115223	1532.163452148438	-323.0485534667969	95.75655364990223	1377.580688476562	-401.3100891113281	93.58116912841788	1361.82421875	-86.75963592529297	132.9971313476561	1324.844848632812	-247.4845275878906	180.7252349853515	1108.689575195312	-243.92431640625	209.8226318359374	981.2446899414062	-239.9078979492188	23.01248359680166	1412.119750976562	-241.6142883300781	-54.04942703247079	1207.389892578125	-247.074462890625	-45.91430664062509	1111.259887695312	-237.8998718261719	130.1320495605468	1316.01220703125	-387.5077514648438	21.62438011169423	1352.328979492188	-411.6198120117188	108.4514007568358	1167.377563476562	-441.8055725097656	-8.051869392395119	1191.401611328125	-444.7100219726562	71.12989044189443	1059.522338867188	-509.1857604980469	17.45150947570792	1040.54248046875	-428.830078125	66.14228820800773	943.727294921875	-448.5303039550781	64.3197708129882	958.8008422851562	-529.1563720703125	111.8782882690429	817.607177734375	-484.1432800292969	74.89637756347648	824.4115600585938	-542.6087036132812	105.9480819702148	767.8895263671875	-539.6819458007812	119.4925155639648	768.8414306640625	-483.5995788574219	137.1024017333984	1307.472290039062	-107.9017028808594	15.2542657852172	1328.65185546875	-79.85975646972656	143.6564788818359	1165.3681640625	-51.80055618286134	37.93995666503899	1154.610961914062	-34.43664932250977	137.3973693847656	1042.813842773438	20.63602638244628	84.8694229125976	1020.037475585938	-59.78783798217774	151.9126739501953	959.7383422851562	-46.90161895751954	131.6402893066406	967.8638305664062	35.2939224243164	221.3766632080078	822.5829467773438	-22.13314819335939	174.4058380126953	805.3914184570312	30.78013992309569	218.7195587158203	755.86572265625	25.36380195617674	243.4632720947265	771.2015380859375	-20.42603492736818	156.2637939453124	978.5574340820312	-354.0585327148438	154.2064514160156	961.143310546875	-120.8288192749024	55.76842117309564	978.7250366210938	-65.05870056152344	54.50783157348626	999.7145385742188	-64.94620513916016	-46.46918869018563	996.8906860351562	-177.1181640625	-53.74337005615242	997.5655517578125	-231.6750030517578	-50.33814620971688	1004.697143554688	-280.9169921875	66.83251190185538	1028.4375	-406.5041809082031	81.30947113037101	982.2371826171875	-408.4810791015625	72.23709869384757	940.246337890625	-429.1438598632812	206.9026947021484	655.9990234375	-388.9075622558594	140.6340637207031	630.117919921875	-387.6558227539062	175.1734619140624	541.6766967773438	-361.2198486328125	240.5956726074218	570.3814086914062	-355.0403747558594	270.1573181152343	573.1626586914062	-288.3736572265625	212.9317169189453	631.437744140625	-230.8707427978516	95.99875640869136	572.6428833007812	-312.2596435546875	237.1025848388671	498.5181579589844	-331.343994140625	221.3818969726562	501.2076416015625	-227.003173828125	238.1363983154296	352.8644409179688	-341.2862243652344	167.2646179199218	359.8164978027344	-361.2786560058594	159.1282653808593	287.5870666503906	-350.2081604003906	230.4675903320312	279.1228637695312	-337.2815551757812	215.9231414794922	315.6362609863281	-227.1095275878906	196.3350677490234	87.27397918701173	-309.4187927246094	180.9768371582031	86.61728668212892	-226.6282348632812	129.0849914550781	63.38112258911134	-275.1126403808594	248.2077484130859	48.76382446289064	-307.5405578613281	317.77099609375	39.44227981567385	-308.2734069824219	347.4616088867188	56.51881790161135	-242.7596588134766	391.58544921875	51.96266937255862	-257.048828125	308.1913146972656	47.00140762329104	-209.7201080322266	248.7731170654297	46.23255157470705	-208.7263336181641	264.9259643554688	97.08092498779298	-259.5262756347656	91.34663391113276	933.7831420898438	-55.60032272338868	155.1338348388672	637.3411254882812	-61.90647888183594	82.59275054931636	637.2972412109375	-50.01182556152344	85.95629882812497	539.7575073242188	-67.22010040283203	156.3921661376953	539.4134521484375	-75.08969879150392	184.4483642578125	495.4011840820312	-136.6051483154297	176.9153137207031	599.2242431640625	-197.7866516113281	22.43304061889644	595.4405517578125	-148.1033020019531	115.6594619750976	453.2592468261719	-87.38425445556641	138.68115234375	438.2273864746094	-186.2142333984375	11.82236385345456	368.3162231445312	-71.79647827148438	-19.90973472595218	432.6928100585938	-78.39113616943359	-86.61609649658206	397.620849609375	-82.66474151611328	-55.15226364135745	332.6272277832031	-77.38120269775391	-1.897355794906647	328.2473754882812	-176.1903533935547	-257.57958984375	242.9183959960937	-116.6539306640625	-233.3023681640625	238.7205352783203	-201.0287933349609	-291.0123901367188	295.4349670410156	-158.7999877929687	-276.2594909667969	167.7800903320312	-120.5512008666992	-277.79345703125	107.9739837646484	-115.6186065673828	-237.6957702636719	88.8330841064453	-184.9837799072265	-228.3033905029297	37.70383834838866	-186.895263671875	-265.4504699707031	92.17233276367186	-226.8146209716797	-261.3325500488281	168.4738159179687	-210.1165161132812	-213.3677978515625	174.3328247070312	-159.4290924072266	91.30921936035145	1538.5947265625	-332.677734375	113.3236007690429	1563.930908203125	-176.5542449951172	155.9632873535155	1557.09814453125	-260.5406188964844	
407	1.624	106.7335739135741	1655.228393554688	-264.5664672851562	153.7826995849608	1545.975708007812	-342.3707275390625	167.3823089599609	1569.988891601562	-178.9078826904297	68.21749877929676	1559.465087890625	-174.5710906982422	38.26248168945301	1533.022705078125	-323.4289245605469	100.3337936401366	1378.4462890625	-401.5381469726562	97.6760940551757	1362.709350585938	-86.89325714111328	137.5349121093749	1325.621826171875	-247.5968780517578	185.5471954345702	1109.427001953125	-243.9716491699219	214.5286560058593	981.7781372070312	-240.1779479980469	26.81964874267568	1412.875366210938	-242.53369140625	-49.43567657470712	1208.043212890625	-247.7201690673828	-41.1745033264161	1111.809448242188	-238.4499816894531	134.6322631835936	1316.940551757812	-387.6380615234375	26.28698921203603	1353.034057617188	-411.9315185546875	113.7614135742187	1168.39794921875	-442.0470275878906	8.013756752014059	1186.415771484375	-451.5404968261719	77.26886749267568	1060.617309570312	-509.7496643066406	23.16971397399893	1041.3037109375	-429.8384399414062	72.45737457275382	944.7453002929688	-449.2007446289062	71.1994094848632	959.7996215820312	-529.7022094726562	119.4192276000976	819.0169067382812	-484.2533264160156	82.54676818847648	825.4646606445312	-542.8510131835938	114.0851745605468	769.2334594726562	-539.6400146484375	127.4640960693359	770.3995971679688	-483.6665954589844	141.4544525146484	1308.20458984375	-107.6793670654297	19.43800354003898	1329.33642578125	-80.38045501708984	147.1964721679687	1165.824829101562	-51.69507598876954	41.44269180297844	1155.190673828125	-34.57891845703125	140.1269531249999	1043.288940429688	20.78302192687988	87.50318145751947	1020.689270019531	-60.02874755859376	154.4496307373046	959.8410034179688	-46.55062103271485	133.5671081542968	968.4390258789062	35.58743667602538	222.279556274414	822.0773315429688	-20.7743320465088	175.0207824707031	805.6076049804688	32.15341949462889	218.7943725585937	755.6409301757812	27.14344406127928	243.706314086914	770.3679809570312	-18.84332847595216	160.9560089111327	979.0663452148438	-354.2971496582031	159.0980377197265	961.73681640625	-121.1115188598633	61.00259399414056	979.3161010742188	-64.98175048828125	60.21714782714837	999.9500732421875	-65.09963226318359	-44.44541931152352	997.8438720703125	-178.8197021484375	-49.83748626708992	998.5472412109375	-232.3360290527344	-45.30332183837898	1005.457824707031	-281.5123596191406	71.64775848388663	1029.127075195312	-406.6371459960938	86.09840393066398	982.970703125	-408.8540954589844	76.7753143310546	941.02587890625	-429.4526977539062	209.8336334228515	655.7849731445312	-389.2646484375	143.4512939453124	630.61572265625	-388.1082763671875	177.1926574707031	541.9096069335938	-361.5995483398438	242.1989440917968	570.8296508789062	-356.2123413085938	272.4256591796874	572.445556640625	-288.5301208496094	215.4819793701172	631.3424072265625	-231.1929931640625	97.01678466796871	573.4877319335938	-313.0303344726562	241.3019561767578	499.267822265625	-331.3448486328125	223.2220916748047	500.9993286132812	-227.1501312255859	239.2462921142578	352.5418395996094	-341.5578002929688	168.3204956054687	359.8970947265625	-361.1853637695312	159.8091735839843	287.7300109863281	-350.1239624023438	231.1398773193359	278.8869934082031	-337.5466003417969	217.2291717529297	315.5105895996094	-227.3895263671875	196.4306945800781	87.35311889648439	-309.5031433105469	180.9570617675781	86.52986145019533	-226.6869049072266	129.1294250488281	63.41299438476563	-275.1163024902344	248.2120666503906	48.74885559082033	-307.5778503417969	317.7936706542969	39.3465042114258	-308.3568725585938	347.5491638183594	56.38152313232424	-242.7513732910157	391.5844421386719	51.81498336791994	-256.9892578125	308.2441711425781	46.91992187500002	-209.5603942871094	248.8192596435547	46.2417678833008	-208.7830657958985	264.9929504394531	97.0225067138672	-259.5068359375	96.04006958007807	934.4312133789062	-55.91004943847657	161.9804534912109	638.9683837890625	-61.27608489990235	89.51999664306636	638.0422973632812	-49.88020324707032	94.083869934082	540.576416015625	-66.9390869140625	164.5741271972656	541.0557861328125	-74.37811279296876	193.7381744384765	497.1982116699219	-135.7592163085938	184.7068939208984	600.8563842773438	-197.1183776855469	30.27980041503902	595.602783203125	-148.1416931152344	125.4708786010742	454.5601196289062	-86.8305130004883	149.014175415039	439.8291625976562	-185.6236114501953	22.01866912841794	369.5584411621094	-71.60620880126953	-9.400047302246126	434.2379455566406	-78.51961517333984	-76.18548583984378	399.2363586425781	-82.62409973144531	-45.03868484497073	334.3551025390625	-77.13188934326172	8.732847213745087	329.2528076171875	-175.9203491210938	-248.0988006591797	245.4574279785156	-117.117919921875	-223.4685821533203	240.8251647949219	-201.4195251464844	-281.7570495605469	297.6408081054688	-159.67919921875	-266.5603942871094	170.4455413818359	-120.5298919677734	-267.771728515625	110.5858459472656	-114.9256973266601	-227.4202117919922	91.0024948120117	-184.004150390625	-217.9661560058594	39.80253601074217	-185.4285278320312	-255.2928161621094	93.69946289062499	-225.9605407714843	-251.4858551025391	170.302978515625	-210.0213470458984	-203.5510559082031	176.8455963134766	-159.5348968505859	96.02259063720692	1539.499267578125	-332.8998413085938	117.7999038696288	1564.726928710938	-176.7394866943359	160.5825042724608	1557.982299804688	-260.6393127441406	
408	1.628	111.2440185546874	1656.122314453125	-264.5548400878906	158.3980560302733	1546.891845703125	-342.6757202148438	171.7458953857421	1570.748657226562	-178.8555297851562	72.6767120361327	1560.388305664062	-174.8139801025391	42.84620666503895	1533.948486328125	-323.5752258300781	104.97013092041	1379.614135742188	-401.7266235351562	101.8395996093749	1363.357177734375	-86.94107055664062	142.0884857177733	1326.49169921875	-247.8477935791016	190.2860717773437	1110.053100585938	-243.7238311767578	219.2814483642577	982.5421752929688	-240.4776763916016	31.1319637298583	1413.557983398438	-242.6795043945312	-44.78574371337899	1208.6787109375	-248.1797943115234	-36.40169906616219	1112.429931640625	-239.1245727539062	138.9907073974608	1318.03125	-387.7342834472656	31.06495857238759	1353.762573242188	-412.2808532714844	119.0986709594726	1169.382690429688	-442.1622619628906	2.37390923500051	1193.24853515625	-446.8238220214844	83.34934234619131	1061.613525390625	-510.2338562011719	28.60655593872061	1042.065673828125	-430.6328430175781	78.72094726562491	945.6832885742188	-449.7831115722656	77.96704101562491	960.7871704101562	-530.20068359375	127.0311279296874	820.3759155273438	-484.6707763671875	90.54265594482413	826.6651611328125	-543.4411010742188	122.1852722167968	770.464599609375	-539.9369506835938	135.1391601562499	771.8195190429688	-483.8325805664062	145.8523559570312	1308.95068359375	-107.601806640625	23.58621406555167	1330.079956054688	-80.76776885986328	150.6550292968749	1166.269409179688	-51.56534957885743	44.69365692138665	1155.808837890625	-34.64042282104492	142.706314086914	1043.816284179688	20.92913436889648	90.20410919189447	1021.445556640625	-60.06544876098634	156.7339324951171	959.9318237304688	-45.90742111206055	135.552993774414	969.0553588867188	35.9666633605957	223.1610717773437	821.713623046875	-19.333797454834	175.5615539550781	805.7848510742188	33.33947753906249	218.7201690673828	755.4479370117188	28.72839355468749	243.9661254882812	769.6378173828125	-17.21857261657716	165.5993041992187	979.5902099609375	-354.6522216796875	163.4440917968749	962.4364624023438	-121.5178604125977	64.3436660766601	979.9224243164062	-65.61580657958984	65.09978485107416	1000.48681640625	-66.00002288818359	-37.13951873779305	998.1542358398438	-177.9149017333984	-44.62485122680672	999.0206909179688	-232.5536804199219	-40.79449081420906	1006.206176757812	-281.8888244628906	76.65665435791007	1029.894897460938	-407.0569763183594	90.83726501464835	983.5984497070312	-409.3566284179688	81.33602142333976	941.7618408203125	-429.7506408691406	212.6612854003906	655.5593872070312	-389.5560913085938	146.2645111083984	630.955810546875	-388.42431640625	179.2244873046874	542.1025390625	-361.8846435546875	244.5356445312499	570.4840087890625	-356.45263671875	274.8700866699218	572.06298828125	-288.7778930664062	218.1604766845703	631.1796875	-231.4454956054688	101.0801620483398	573.8531494140625	-312.7999267578125	243.6478424072265	499.1432189941406	-331.5320129394531	225.080337524414	500.7498474121094	-227.3937225341797	240.1541290283203	352.4624328613281	-341.8464965820312	169.2315063476562	360.02734375	-361.1383972167969	160.6451721191406	287.6444702148438	-350.005126953125	231.7680053710937	278.6992797851562	-337.806640625	218.43359375	315.3420715332031	-227.5716552734375	196.4048767089843	87.05555725097658	-309.4443664550781	181.3558349609375	86.70983886718751	-226.5939636230469	129.1707763671875	63.44737243652344	-275.0898742675781	248.2702178955078	48.71689605712892	-307.5240783691406	317.7739868164062	39.18987655639651	-308.3988342285156	347.7131958007812	56.15452575683596	-242.738754272461	391.6031799316406	51.57433700561526	-256.9134826660156	308.3941040039062	46.54954910278322	-209.6886749267578	248.952880859375	46.17330169677736	-208.7727203369141	265.1007080078125	96.94186401367189	-259.5283508300781	100.6704406738281	935.15673828125	-56.19689178466798	169.0904541015625	640.9447021484375	-61.13078308105469	96.59237670898433	638.8969116210938	-49.86026763916016	102.2334060668945	541.4915771484375	-66.76654815673828	172.471206665039	542.7891235351562	-73.30905914306642	203.0194091796875	498.8142395019531	-134.9417114257812	192.3257141113281	602.6299438476562	-196.4874877929688	38.0228996276855	595.7549438476562	-148.1986694335938	135.2888946533203	455.9182739257812	-86.2024383544922	158.8297882080078	441.4080810546875	-185.6079559326172	32.39019393920896	371.1360778808594	-71.48496246337891	1.138869285583465	435.8155822753906	-78.53106689453125	-65.6059265136719	401.2576599121094	-82.44253540039062	-34.78951644897464	336.0230712890625	-77.00991821289062	18.72977256774899	330.8186645507812	-176.0516204833984	-238.5381164550782	247.8908996582031	-117.4777374267578	-213.6155853271485	242.7040405273438	-201.7214813232422	-272.6045227050781	299.4591674804688	-160.667984008789	-256.5716247558594	172.7484588623047	-120.3142013549805	-257.3067016601562	112.9702377319336	-114.1950759887695	-216.8176727294922	92.9983444213867	-183.1082305908203	-206.7957763671875	41.92356491088866	-184.0162963867188	-244.4501495361328	94.97584533691405	-224.9776916503906	-241.2461547851562	171.8828887939453	-209.9147338867187	-193.6839904785156	179.1259460449219	-159.2255249023438	100.6221313476561	1540.420166015625	-333.1254577636719	122.2113037109374	1565.568481445312	-176.8347473144531	165.0719757080077	1558.820190429688	-260.765625	
